<svg width="179" height="179" viewBox="0 0 179 179" fill="none" xmlns="http://www.w3.org/2000/svg">
<circle cx="89.375" cy="89.375" r="88.4812" stroke="white" stroke-width="1.7875"/>
<path d="M145.588 22.1798C145.702 22.2352 145.869 22.3143 146.079 22.4091C146.5 22.5987 147.097 22.8509 147.796 23.1038C149.193 23.6091 151.006 24.1161 152.66 24.1161C154.314 24.1161 156.127 23.6091 157.524 23.1038C158.223 22.8509 158.819 22.598 159.24 22.4084C159.451 22.3136 159.618 22.2352 159.732 22.1798C159.75 22.1711 159.767 22.1625 159.782 22.155C159.775 22.1704 159.767 22.1873 159.758 22.2054C159.703 22.3197 159.624 22.4866 159.529 22.697C159.339 23.1182 159.087 23.7148 158.834 24.4137C158.329 25.8108 157.822 27.6239 157.822 29.2778C157.822 30.9318 158.329 32.7448 158.834 34.142C159.087 34.8409 159.339 35.4374 159.529 35.8586C159.624 36.0691 159.703 36.2359 159.758 36.3503C159.767 36.3684 159.775 36.3853 159.782 36.4007C159.767 36.3932 159.75 36.3845 159.732 36.3758C159.618 36.3205 159.451 36.2421 159.24 36.1473C158.819 35.9576 158.223 35.7047 157.524 35.4519C156.127 34.9465 154.314 34.4396 152.66 34.4396C151.006 34.4396 149.193 34.9465 147.796 35.4519C147.097 35.7048 146.5 35.9569 146.079 36.1466C145.869 36.2413 145.702 36.3205 145.588 36.3758C145.569 36.3847 145.552 36.3931 145.536 36.4007C145.544 36.3851 145.553 36.3685 145.562 36.3503C145.617 36.2359 145.696 36.0685 145.791 35.8579C145.98 35.4367 146.233 34.8409 146.486 34.142C146.991 32.7448 147.498 30.9318 147.498 29.2778C147.498 27.6239 146.991 25.8108 146.486 24.4137C146.233 23.7148 145.98 23.119 145.791 22.6977C145.696 22.4872 145.617 22.3198 145.562 22.2054C145.553 22.1871 145.544 22.1705 145.536 22.155C145.552 22.1626 145.569 22.171 145.588 22.1798Z" fill="white" stroke="white" stroke-width="0.0942037"/>
<path d="M16.5387 140.765C16.6531 140.82 16.8199 140.899 17.0304 140.994C17.4516 141.184 18.0481 141.436 18.7471 141.689C20.1442 142.194 21.9572 142.701 23.6112 142.701C25.2651 142.701 27.0783 142.194 28.4753 141.689C29.1742 141.436 29.7701 141.183 30.1913 140.993C30.4019 140.899 30.5693 140.82 30.6836 140.765C30.7016 140.756 30.718 140.747 30.7334 140.74C30.7258 140.755 30.7179 140.772 30.7092 140.79C30.6538 140.905 30.5747 141.072 30.4799 141.282C30.2903 141.703 30.0381 142.3 29.7853 142.999C29.2799 144.396 28.7729 146.209 28.7729 147.863C28.7729 149.517 29.2799 151.33 29.7853 152.727C30.0381 153.426 30.2903 154.022 30.4799 154.444C30.5747 154.654 30.6538 154.821 30.7092 154.935C30.7179 154.953 30.7258 154.97 30.7334 154.986C30.718 154.978 30.7016 154.969 30.6836 154.961C30.5693 154.905 30.4019 154.827 30.1913 154.732C29.7701 154.543 29.1742 154.29 28.4753 154.037C27.0783 153.532 25.2651 153.025 23.6112 153.025C21.9572 153.025 20.1442 153.531 18.7471 154.037C18.0481 154.29 17.4516 154.542 17.0304 154.732C16.8199 154.826 16.6531 154.905 16.5387 154.961C16.5204 154.97 16.5033 154.978 16.4876 154.986C16.4952 154.97 16.5044 154.953 16.5132 154.935C16.5686 154.821 16.647 154.653 16.7418 154.443C16.9314 154.022 17.1843 153.426 17.4371 152.727C17.9425 151.33 18.4495 149.517 18.4495 147.863C18.4495 146.209 17.9425 144.396 17.4371 142.999C17.1843 142.3 16.9314 141.704 16.7418 141.283C16.647 141.072 16.5686 140.905 16.5132 140.79C16.5044 140.772 16.4952 140.755 16.4876 140.74C16.5033 140.748 16.5204 140.756 16.5387 140.765Z" fill="white" stroke="white" stroke-width="0.0942037"/>
<path d="M149.123 25.7285C149.18 25.7562 149.264 25.7958 149.369 25.8431C149.58 25.9379 149.877 26.0648 150.227 26.1911C150.925 26.4438 151.832 26.6973 152.659 26.6973C153.486 26.6972 154.392 26.4438 155.091 26.1911C155.44 26.0648 155.739 25.9386 155.949 25.8438C156.054 25.7964 156.138 25.7562 156.196 25.7285C156.205 25.7241 156.213 25.7198 156.221 25.7161C156.217 25.7238 156.213 25.7325 156.209 25.7416C156.181 25.7988 156.141 25.8828 156.093 25.9881C155.999 26.1987 155.872 26.4965 155.745 26.8458C155.493 27.5443 155.24 28.4509 155.24 29.2778C155.24 30.1048 155.493 31.0114 155.745 31.7099C155.872 32.0592 155.999 32.3569 156.093 32.5675C156.141 32.6729 156.181 32.7569 156.209 32.8141C156.213 32.8232 156.217 32.8319 156.221 32.8396C156.213 32.8359 156.205 32.8315 156.196 32.8272C156.138 32.7995 156.054 32.7593 155.949 32.7119C155.739 32.617 155.44 32.4909 155.091 32.3645C154.392 32.1119 153.486 31.8584 152.659 31.8584C151.832 31.8584 150.925 32.1118 150.227 32.3645C149.877 32.4909 149.58 32.6177 149.369 32.7125C149.264 32.7599 149.18 32.7995 149.123 32.8272C149.114 32.8317 149.105 32.8357 149.097 32.8396C149.101 32.8317 149.106 32.8233 149.11 32.8141C149.138 32.7569 149.177 32.6735 149.225 32.5682C149.32 32.3576 149.446 32.0594 149.572 31.7099C149.825 31.0113 150.079 30.1048 150.079 29.2778C150.079 28.4508 149.825 27.5443 149.572 26.8458C149.446 26.4963 149.32 26.198 149.225 25.9874C149.177 25.8822 149.138 25.7988 149.11 25.7416C149.106 25.7323 149.101 25.7239 149.097 25.7161C149.105 25.7199 149.114 25.724 149.123 25.7285Z" fill="#C15355" stroke="white" stroke-width="0.0471018"/>
<path d="M20.0744 144.313C20.1316 144.341 20.2151 144.381 20.3202 144.428C20.5308 144.523 20.8285 144.65 21.1779 144.776C21.8764 145.029 22.7836 145.282 23.6106 145.282C24.4374 145.282 25.3436 145.029 26.042 144.776C26.3914 144.65 26.6897 144.524 26.9003 144.429C27.0057 144.381 27.0897 144.341 27.1469 144.313C27.1558 144.309 27.164 144.305 27.1717 144.301C27.1679 144.309 27.1644 144.317 27.16 144.327C27.1323 144.384 27.0921 144.468 27.0447 144.573C26.9498 144.784 26.823 145.081 26.6966 145.431C26.444 146.129 26.1912 147.036 26.1912 147.863C26.1912 148.69 26.444 149.596 26.6966 150.295C26.823 150.644 26.9498 150.942 27.0447 151.152C27.0921 151.258 27.1323 151.342 27.16 151.399C27.1644 151.408 27.1679 151.417 27.1717 151.425C27.164 151.421 27.1558 151.416 27.1469 151.412C27.0897 151.384 27.0057 151.344 26.9003 151.297C26.6897 151.202 26.3914 151.076 26.042 150.949C25.3436 150.697 24.4374 150.443 23.6106 150.443C22.7836 150.443 21.8764 150.697 21.1779 150.949C20.8285 151.076 20.5308 151.203 20.3202 151.298C20.2151 151.345 20.1316 151.384 20.0744 151.412C20.0651 151.417 20.0561 151.421 20.0482 151.425C20.052 151.417 20.0568 151.408 20.0613 151.399C20.089 151.342 20.1285 151.258 20.1759 151.153C20.2707 150.943 20.3968 150.644 20.5233 150.295C20.7759 149.596 21.0301 148.69 21.0301 147.863C21.0301 147.036 20.7759 146.129 20.5233 145.431C20.3968 145.081 20.2707 144.783 20.1759 144.572C20.1285 144.467 20.089 144.384 20.0613 144.327C20.0568 144.317 20.052 144.309 20.0482 144.301C20.0561 144.305 20.0651 144.309 20.0744 144.313Z" fill="#C15355" stroke="white" stroke-width="0.0471018"/>
<path d="M88.5039 7.78223C109.599 7.78223 128.802 15.8305 143.183 29.0078C143.173 29.0917 143.163 29.1878 143.15 29.2939C143.098 29.7235 143.018 30.3224 142.911 30.999C142.722 32.1956 142.451 33.5957 142.103 34.7295L141.948 35.1982C141.587 36.219 140.951 37.4879 140.39 38.5254C140.112 39.0389 139.857 39.486 139.672 39.8047C139.579 39.9639 139.505 40.0911 139.453 40.1777C139.427 40.2209 139.408 40.2542 139.395 40.2764C139.388 40.2871 139.383 40.2953 139.38 40.3008C139.378 40.3035 139.377 40.3064 139.376 40.3076L139.375 40.3086L137.998 42.5791L140.405 41.458H140.406C140.408 41.4573 140.411 41.4556 140.414 41.4541C140.42 41.4511 140.431 41.4463 140.443 41.4404C140.469 41.4284 140.509 41.4107 140.56 41.3877C140.662 41.3414 140.811 41.2745 140.999 41.1924C141.375 41.028 141.901 40.8036 142.505 40.5645C143.573 40.1413 144.843 39.6874 145.934 39.4268L146.389 39.3271C147.579 39.0955 149.169 39.026 150.495 39.0186C151.151 39.0149 151.73 39.0267 152.145 39.0391C152.254 39.0423 152.352 39.0457 152.437 39.0488C162.963 52.6097 169.225 69.6102 169.225 88.0674C169.224 132.403 133.089 168.352 88.5039 168.352C67.7101 168.352 48.7556 160.532 34.4453 147.688C34.4592 147.614 34.4749 147.532 34.4922 147.442C34.5747 147.014 34.6948 146.417 34.8467 145.743C35.1149 144.553 35.4738 143.156 35.8838 142.026L36.0625 141.56C36.5523 140.353 37.3941 138.874 38.1328 137.673C38.4988 137.078 38.8334 136.561 39.0762 136.192C39.1975 136.008 39.2957 135.862 39.3633 135.762C39.397 135.712 39.4239 135.674 39.4414 135.648C39.4502 135.636 39.4566 135.625 39.4609 135.619C39.4631 135.616 39.4648 135.614 39.4658 135.612L39.4668 135.61L40.8828 133.558L38.5322 134.393L38.5303 134.394C38.5284 134.394 38.5253 134.395 38.5215 134.396C38.5137 134.399 38.5018 134.404 38.4863 134.409C38.4554 134.42 38.4091 134.436 38.3496 134.457C38.2305 134.499 38.0568 134.559 37.8398 134.634C37.4052 134.784 36.7966 134.991 36.1025 135.219C34.8827 135.62 33.4129 136.081 32.1572 136.415L31.6338 136.55C30.3036 136.879 28.5631 137.201 27.1426 137.443C26.4353 137.564 25.8123 137.664 25.3662 137.733C25.2734 137.748 25.1879 137.761 25.1113 137.772C14.2598 124.101 7.78328 106.838 7.7832 88.0674C7.7832 43.7314 43.919 7.78228 88.5039 7.78223Z" fill="url(#paint0_linear_1483_538)" stroke="white" stroke-width="1.61311"/>
<defs>
<linearGradient id="paint0_linear_1483_538" x1="88.504" y1="6.97559" x2="88.504" y2="169.159" gradientUnits="userSpaceOnUse">
<stop stop-color="#F58061"/>
<stop offset="0.55586" stop-color="#DE463C"/>
</linearGradient>
</defs>
</svg>
