<svg width="148" height="149" viewBox="0 0 148 149" fill="none" xmlns="http://www.w3.org/2000/svg">
<path d="M35.6816 8.33984H141.522V113.161C141.522 128.825 128.825 141.522 113.161 141.522H7.32031V36.7012C7.32031 21.0375 20.018 8.33984 35.6816 8.33984Z" fill="url(#paint0_linear_1477_500)" stroke="white" stroke-width="4.44487"/>
<path d="M61.168 6.62695H143.235V87.6748C143.235 118.36 118.36 143.235 87.6748 143.235H5.60742V62.1875C5.60757 31.5023 30.4828 6.6271 61.168 6.62695Z" stroke="white" stroke-width="1.01946"/>
<path d="M123.379 124.224C123.872 124.541 124.569 124.965 125.386 125.389C127.02 126.235 129.142 127.085 131.08 127.085C133.018 127.085 135.14 126.235 136.773 125.389C137.591 124.965 138.288 124.541 138.781 124.224C138.998 124.084 139.175 123.964 139.306 123.874C139.216 124.004 139.096 124.182 138.956 124.399C138.638 124.892 138.215 125.589 137.791 126.407C136.945 128.04 136.094 130.162 136.094 132.1C136.094 134.038 136.945 136.16 137.791 137.794C138.215 138.611 138.638 139.308 138.956 139.801C139.096 140.018 139.216 140.196 139.306 140.326C139.175 140.237 138.998 140.117 138.781 139.976C138.288 139.659 137.591 139.235 136.773 138.811C135.14 137.965 133.018 137.115 131.08 137.115C129.142 137.115 127.02 137.965 125.386 138.811C124.569 139.235 123.872 139.659 123.379 139.976C123.161 140.117 122.984 140.237 122.853 140.327C122.943 140.196 123.063 140.019 123.204 139.801C123.521 139.308 123.945 138.611 124.369 137.794C125.215 136.16 126.065 134.038 126.065 132.1C126.065 130.162 125.215 128.04 124.369 126.407C123.945 125.589 123.521 124.892 123.204 124.399C123.063 124.181 122.943 124.004 122.853 123.873C122.984 123.963 123.161 124.083 123.379 124.224Z" fill="white" stroke="white" stroke-width="0.110141"/>
<path d="M127.231 128.162C127.477 128.321 127.826 128.533 128.235 128.745C129.051 129.168 130.112 129.593 131.081 129.593C132.05 129.593 133.111 129.167 133.928 128.744C134.337 128.532 134.685 128.321 134.931 128.162C135.04 128.092 135.128 128.032 135.194 127.987C135.149 128.052 135.089 128.141 135.019 128.25C134.86 128.496 134.649 128.844 134.437 129.253C134.014 130.07 133.588 131.131 133.588 132.1C133.588 133.069 134.014 134.13 134.437 134.947C134.649 135.356 134.86 135.704 135.019 135.951C135.089 136.059 135.149 136.148 135.194 136.214C135.128 136.169 135.04 136.108 134.931 136.038C134.685 135.879 134.337 135.668 133.928 135.456C133.111 135.033 132.05 134.607 131.081 134.607C130.112 134.607 129.051 135.032 128.235 135.455C127.826 135.667 127.477 135.879 127.231 136.038C127.121 136.109 127.032 136.169 126.967 136.214C127.012 136.148 127.072 136.06 127.143 135.951C127.302 135.704 127.514 135.355 127.726 134.946C128.149 134.13 128.574 133.069 128.574 132.1C128.574 131.131 128.149 130.07 127.726 129.254C127.514 128.845 127.302 128.496 127.143 128.25C127.072 128.141 127.012 128.052 126.967 127.987C127.032 128.032 127.121 128.092 127.231 128.162Z" fill="#E86B67" stroke="white" stroke-width="0.0550704"/>
<path d="M9.19929 9.02416C9.69191 9.34173 10.3891 9.76561 11.2067 10.1891C12.8401 11.0351 14.9623 11.8857 16.9001 11.8857C18.8379 11.8857 20.9602 11.0351 22.5936 10.1891C23.4112 9.7656 24.1083 9.34174 24.601 9.02416C24.8184 8.88397 24.9958 8.76395 25.1265 8.67406C25.0366 8.80474 24.9165 8.9821 24.7764 9.19956C24.4588 9.69219 24.0349 10.3893 23.6114 11.2069C22.7654 12.8403 21.9148 14.9626 21.9148 16.9004C21.9148 18.8382 22.7654 20.9604 23.6114 22.5938C24.0349 23.4115 24.4588 24.1086 24.7764 24.6012C24.9165 24.8187 25.0366 24.996 25.1265 25.1267C24.9958 25.0368 24.8184 24.9168 24.601 24.7766C24.1083 24.459 23.4112 24.0352 22.5936 23.6117C20.9602 22.7657 18.8379 21.915 16.9001 21.915C14.9623 21.9151 12.8401 22.7657 11.2067 23.6117C10.3891 24.0352 9.69191 24.459 9.19929 24.7766C8.98139 24.9171 8.80385 25.0375 8.67311 25.1274C8.76305 24.9967 8.88342 24.8191 9.0239 24.6012C9.34148 24.1086 9.76535 23.4115 10.1888 22.5938C11.0348 20.9604 11.8855 18.8382 11.8855 16.9004C11.8855 14.9625 11.0348 12.8404 10.1888 11.2069C9.76535 10.3893 9.34148 9.69218 9.0239 9.19956C8.88342 8.98165 8.76305 8.80412 8.67311 8.67337C8.80385 8.76331 8.98139 8.88368 9.19929 9.02416Z" fill="white" stroke="white" stroke-width="0.110141"/>
<path d="M13.0508 12.9623C13.2971 13.1211 13.646 13.3333 14.0549 13.5451C14.8715 13.968 15.9325 14.393 16.9012 14.3931C17.8702 14.3931 18.9316 13.9674 19.7483 13.5444C20.157 13.3327 20.5054 13.121 20.7517 12.9623C20.8603 12.8922 20.9487 12.8318 21.0141 12.7869C20.9691 12.8522 20.9095 12.9412 20.8394 13.05C20.6806 13.2962 20.4689 13.6447 20.2572 14.0533C19.8342 14.87 19.4086 15.9315 19.4086 16.9004C19.4086 17.8693 19.8342 18.9308 20.2572 19.7475C20.4689 20.1561 20.6806 20.5046 20.8394 20.7508C20.9095 20.8596 20.9691 20.9486 21.0141 21.0139C20.9487 20.969 20.8603 20.9086 20.7517 20.8385C20.5054 20.6798 20.157 20.4681 19.7483 20.2564C18.9316 19.8334 17.8702 19.4077 16.9012 19.4077C15.9325 19.4077 14.8715 19.8328 14.0549 20.2557C13.646 20.4674 13.2971 20.6797 13.0508 20.8385C12.9416 20.9089 12.8525 20.9689 12.787 21.0139C12.832 20.9485 12.8928 20.8599 12.9631 20.7508C13.1219 20.5045 13.3342 20.1556 13.5459 19.7468C13.9689 18.9301 14.3939 17.8692 14.3939 16.9004C14.3939 15.9316 13.9689 14.8707 13.5459 14.054C13.3342 13.6452 13.1219 13.2963 12.9631 13.05C12.8928 12.9408 12.832 12.8523 12.787 12.7869C12.8525 12.8319 12.9416 12.8919 13.0508 12.9623Z" fill="#E86B67" stroke="white" stroke-width="0.0550704"/>
<defs>
<linearGradient id="paint0_linear_1477_500" x1="74.4213" y1="6.11719" x2="74.4213" y2="143.745" gradientUnits="userSpaceOnUse">
<stop stop-color="#D8261A"/>
<stop offset="1" stop-color="#F07675"/>
</linearGradient>
</defs>
</svg>
